<svg xmlns="http://www.w3.org/2000/svg" version="1.1" xmlns:xlink="http://www.w3.org/1999/xlink" width="1920" height="1920"><svg width="1920" height="1920" viewBox="0 0 1920 1920" xmlns="http://www.w3.org/2000/svg">
    <path id="SvgjsPath1031" fill="#402351" fill-rule="evenodd" stroke="none" d="M 0 1920 L 1920 1920 L 1920 0 L 0 0 Z"></path>
    <g id="SvgjsG1030">
        <g id="SvgjsG1029">
            <path id="SvgjsPath1028" fill="none" stroke="#ffffff" stroke-width="7.734375" stroke-linecap="round" stroke-linejoin="round" d="M 217.5 960 L 712.5 960 L 712.5 465 L 217.5 465 Z"></path>
            <path id="SvgjsPath1027" fill="none" stroke="#ffffff" stroke-width="7.734375" stroke-linecap="round" stroke-linejoin="round" d="M 712.5 960 L 1207.5 960 L 1207.5 465 L 712.5 465 Z"></path>
            <path id="SvgjsPath1026" fill="none" stroke="#ffffff" stroke-width="7.734375" stroke-linecap="round" stroke-linejoin="round" d="M 1207.5 960 L 1702.5 960 L 1702.5 465 L 1207.5 465 Z"></path>
            <path id="SvgjsPath1025" fill="none" stroke="#ffffff" stroke-width="7.734375" stroke-linecap="round" stroke-linejoin="round" d="M 217.5 1455 L 712.5 1455 L 712.5 960 L 217.5 960 Z"></path>
            <path id="SvgjsPath1024" fill="none" stroke="#ffffff" stroke-width="7.734375" stroke-linecap="round" stroke-linejoin="round" d="M 712.5 1455 L 1207.5 1455 L 1207.5 960 L 712.5 960 Z"></path>
            <path id="SvgjsPath1023" fill="none" stroke="#ffffff" stroke-width="7.734375" stroke-linecap="round" stroke-linejoin="round" d="M 1207.5 1455 L 1702.5 1455 L 1702.5 960 L 1207.5 960 Z"></path>
            <path id="SvgjsPath1022" fill="none" stroke="#ffffff" stroke-width="17.678572" stroke-linecap="round" stroke-linejoin="round" d="M 217.5 1455 L 1702.5 1455 L 1702.5 465 L 217.5 465 Z"></path>
            <text id="SvgjsText1021" xml:space="preserve" x="421" y="787" font-family="Inter 18pt" font-size="198" font-weight="700" fill="#ffffff">1</text>
            <text id="SvgjsText1020" xml:space="preserve" x="1396" y="1282" font-family="Inter 18pt" font-size="198" font-weight="700" fill="#ffffff">2</text>
            <text id="SvgjsText1019" xml:space="preserve" x="421" y="1269" font-family="Inter 18pt" font-size="198" font-weight="700" fill="#ffffff">5</text>
            <text id="SvgjsText1018" xml:space="preserve" x="896" y="787" font-family="Inter 18pt" font-size="198" font-weight="700" fill="#ffffff">3</text>
            <text id="SvgjsText1017" xml:space="preserve" x="896" y="1282" font-family="Inter 18pt" font-size="198" font-weight="700" fill="#ffffff">6</text>
            <text id="SvgjsText1016" xml:space="preserve" x="1386" y="787" font-family="Inter 18pt" font-size="198" font-weight="700" fill="#ffffff">4</text>
        </g>
    </g>
</svg><style>@media (prefers-color-scheme: light) { :root { filter: none; } }
@media (prefers-color-scheme: dark) { :root { filter: none; } }
</style></svg>