<?xml version="1.0" encoding="UTF-8"?>
<!-- Generated by Pixelmator Pro 3.7.1 -->
<svg width="1920" height="1920" viewBox="0 0 1920 1920" xmlns="http://www.w3.org/2000/svg">
    <path id="BG" fill="#402351" fill-rule="evenodd" stroke="none" d="M 0 1920 L 1920 1920 L 1920 0 L 0 0 Z"/>
    <g id="Group">
        <g id="0">
            <path id="Rectangle" fill="none" stroke="#ffffff" stroke-width="7.734375" stroke-linecap="round" stroke-linejoin="round" d="M 217.5 960 L 712.5 960 L 712.5 465 L 217.5 465 Z"/>
            <path id="Rectangle-copy" fill="none" stroke="#ffffff" stroke-width="7.734375" stroke-linecap="round" stroke-linejoin="round" d="M 712.5 960 L 1207.5 960 L 1207.5 465 L 712.5 465 Z"/>
            <path id="Rectangle-copy-2" fill="none" stroke="#ffffff" stroke-width="7.734375" stroke-linecap="round" stroke-linejoin="round" d="M 1207.5 960 L 1702.5 960 L 1702.5 465 L 1207.5 465 Z"/>
            <path id="Rectangle-copy-5" fill="none" stroke="#ffffff" stroke-width="7.734375" stroke-linecap="round" stroke-linejoin="round" d="M 217.5 1455 L 712.5 1455 L 712.5 960 L 217.5 960 Z"/>
            <path id="Rectangle-copy-4" fill="none" stroke="#ffffff" stroke-width="7.734375" stroke-linecap="round" stroke-linejoin="round" d="M 712.5 1455 L 1207.5 1455 L 1207.5 960 L 712.5 960 Z"/>
            <path id="Rectangle-copy-3" fill="none" stroke="#ffffff" stroke-width="7.734375" stroke-linecap="round" stroke-linejoin="round" d="M 1207.5 1455 L 1702.5 1455 L 1702.5 960 L 1207.5 960 Z"/>
            <path id="path1" fill="none" stroke="#ffffff" stroke-width="17.678572" stroke-linecap="round" stroke-linejoin="round" d="M 217.5 1455 L 1702.5 1455 L 1702.5 465 L 217.5 465 Z"/>
            <text id="1" xml:space="preserve" x="421" y="787" font-family="Inter 18pt" font-size="198" font-weight="700" fill="#ffffff">1</text>
            <text id="2" xml:space="preserve" x="1396" y="1282" font-family="Inter 18pt" font-size="198" font-weight="700" fill="#ffffff">2</text>
            <text id="5" xml:space="preserve" x="421" y="1269" font-family="Inter 18pt" font-size="198" font-weight="700" fill="#ffffff">5</text>
            <text id="3" xml:space="preserve" x="896" y="787" font-family="Inter 18pt" font-size="198" font-weight="700" fill="#ffffff">3</text>
            <text id="6" xml:space="preserve" x="896" y="1282" font-family="Inter 18pt" font-size="198" font-weight="700" fill="#ffffff">6</text>
            <text id="4" xml:space="preserve" x="1386" y="787" font-family="Inter 18pt" font-size="198" font-weight="700" fill="#ffffff">4</text>
        </g>
    </g>
</svg>
